<svg xmlns="http://www.w3.org/2000/svg" viewBox="0 0 841.9 595.3" fill="#ffcd33" xmlns:v="https://vecta.io/nano"><path d="M94.8 527l30.2-33.2c16.6-18 17.5-31.2 2.5-50.7l-47.7-62.6c-23.7-33-43.3-68.2-54.9-107.2-14.1-47.5-12.9-94.6 9.7-139.5C51 101.2 75.5 76 108.5 59.2 150.2 37.9 194.9 28 241 23.6c57.8-5.5 114.7-.4 170.3 16.5 35.4 10.7 69.2 25.4 99.5 47.2 6.7 4.8 13.6 9.7 17.8 17.8-5.8 1.4-10.7-.4-15.7-1.2-9.2-1.6-17.1.8-18.3 5.7-1.2 4.6 5.3 10.1 14.8 12 9 1.9 18 3.1 27.2 3.2 7.7.1 16.3 9.3 16.2 17-.1 3.5-2.6 3.8-5 4.3-6.6 1.3-13 2.9-19.2 5.7-19.5 8.9-28.6 25.8-29.9 45.4-2.4 35-1.5 70.3-3.7 105.3-1.6 25.7-1.1 51.5-1.8 77.2-.5 18.3 4.3 36.7 23.5 46.3 4.8 2.4 2 4.7.3 6.9l-32.1 38.9c-34.9 40.3-77.6 69.2-127.5 88-41.6 15.6-81.6 10.3-121-7.6-22.2-10.1-40-26.3-58.2-41.9-1.9-1.6-4.1-2.9-5.7-4.7-5.1-5.7-10.5-4.8-16.8-2L105.9 525c-3 1-5.9 2.5-11.1 2zm287.5-259.3c1 36.9-2.3 74.5-1.6 112.1 0 1.5-.2 3-.3 4.4-1.4 23.5-3.2 46.9-2.4 70.4.2 7.2 1.1 14.3 2.1 21.4.5 3.4 2.1 6.9 6.2 7.5 3.6.5 4.9-2.7 6.6-5.1 4.7-7.1 8.6-14.7 9.7-23.1l10.8-89.9c1.5-13.4 3.2-26.5 11.1-38 2.1-3 4.7-5.3 8.6-4.7 4.1.7 5.3 4 6.1 7.5 1.9 8.6 1.3 17.3.5 25.9-2.9 32.5-8.2 64.9-3.8 97.6 1.5 11.1.7 22.9 8.6 32.4 3.8 4.6 8.2 5.2 12.6 1 2.8-2.6 4.1-6.1 5.2-9.7 2.8-9.3 3.8-18.9 4.5-28.5l4.9-72.5 5.6-103 3.9-57 3.4-65.9c.4-10.9-5.7-17.7-14.4-18.4-10.3-.8-17.3 5.1-19.6 15.9-3.2 15-6.2 30.1-6.8 45.5-.7 16.3-3.2 32.4-1.2 48.9 1.4 11.4 1.7 23.3-1.3 34.7-2.7 10.5-10.1 14.4-20.3 11.4-7.9-2.3-8.9-8.3-9.1-15-1-34.2 2.1-68.2 5.4-102.2 1.2-12.9.7-25.7-2.4-38.4-2.3-9.6-11.1-12.5-18.7-6.6-4.9 3.8-7.8 8.8-9.3 14.7-4.5 17.1-6.5 34.6-5.8 52.2.9 24.7 1.6 49.2 1.2 74.5zm-47.1-192c-19.6.1-34.5-.3-49.3 1.6-14 1.8-28 3.8-40.8 10.1-8.1 4-11.8 11.3-10.6 17.9 1.1 6.1 7.2 11 16 12.2 8.1 1.2 16.3 1.6 24.3 3.1 13.6 2.5 26.5 6.8 33.8 20 5.3 9.6 9.5 19.7 11 30.6 7 50.5 9 101.4 11.9 152.3 1.8 31.8 1.7 63.8 4.9 95.5 1.5 14.7 2.3 29.7 7.2 43.8 1.6 4.5 3.8 10 8.8 9.9 5.8 0 7.3-6.1 8.2-10.9 2.1-10.2 3.5-20.5 3.7-30.9.5-25.9 1-51.9.2-77.8-1-31.7-.3-63.4-.3-95.1 0-13.6.8-27.3-.4-40.8-1.7-20.8-.3-41.5.8-62.1 1.3-25 16.2-39.9 40.6-43.7l18.3-2.9c6.2-1 10.9-4.4 11.7-10.7.7-5.8-4.1-8.6-8.9-10.5-3.9-1.5-7.9-2.9-12-3.7-27.6-5.5-55.5-9.3-79.1-7.9zm-165.8 126c.2-18.9-6.4-34.8-19.3-48.5-13.8-14.7-29.9-22.4-50.3-19.3-28.3 4.3-48.4 21.1-65.1 43-2.5 3.3-4.3 7.4-3.9 11.8.9 9.8 1.9 19.6 4.7 29.2 6.2 21.7 14.3 42.6 22.2 63.7 14.1 37.8 30 74.8 48.8 110.5 3.8 7.1 7.3 14.7 13.2 20.5 1.6 1.6 3.3 3.3 5.8 2.5 2.8-.8 3.7-3.1 3.9-5.7.2-2.2.1-4.5.3-6.7 1.3-19.6-4.3-38.3-7-57.4-3.3-23.5-7.5-46.9-11.6-70.3-1-5.4.5-8.9 5.3-11.7 8.7-5.1 17.2-10.8 25.8-16.1 17.1-10.2 27.7-24.7 27.2-45.5zm86.5 101.6c1.8 3.9 3.1 6.1 3.7 8.4l17.4 63.7c6 22.2 11.7 44.5 22.1 65.3 1.9 3.8 4.3 8 9.1 7.5 5.1-.5 5.7-5.5 6.8-9.6.3-.9.3-2 .4-2.9 3.6-30.9.5-61.8-.6-92.7l-5.4-105.9c-.8-16.8-1.7-33.6-4.7-50.2-1.2-6.6-2.5-13.2-6.4-18.9-1.2-1.7-2.4-4.2-5.1-3.7-2.9.5-3.8 3.1-4.2 5.6-1.3 8.6-2.3 17.1-1.3 25.9 1.1 9.8 1.6 19.7 2.3 29.6l7.1 100.6c.5 7.7.7 15.3-2.3 23.4-4-4.5-5-9.1-6.3-13.6-9-30.9-15.1-62.5-22.5-93.8-5-21.2-10.3-42.3-17.2-63-1.4-4.3-3.1-10.5-8.4-10-5.2.5-4.6 7.1-5 11.2-1.4 16-2.7 32-3.1 48.1-.5 25.2.3 50.5 1 75.7 1.1 42.6 3.3 85 10.1 127.1 1.2 7.4 2.5 14.6 5.1 21.6.9 2.4 2.1 4.7 5.1 4.5 3.3-.3 3.5-3 3.7-5.5 1.1-12.9-.1-25.7-.6-38.5-1-28.9-5.8-57.6-5.4-86.6.4-7.3 1.1-14.6 4.6-23.3zm-31.2 36.1c1.2-20.5-2.6-42.2-8.8-63.4-3.6-12.3-8.5-24.5-18.4-33.4-13.4-12.1-25.8-9.5-35.1-.4-7 6.9-11.3 16.1-14 25.8-12 42.6-8.7 84.8 4.7 126.3 4.6 14.2 10.4 28.4 22.3 38.8 8.6 7.5 20.2 6.9 27.5-2 4.6-5.6 8.6-11.6 10.7-18.5 7.2-23.2 11.9-46.9 11.1-73.2zm615.5-114.6c3.2 29.9-9 59.6-21.3 89.1-12.8 30.7-28.1 60.1-48.3 86.7-9.4 12.4-19.1 24.5-31.7 34.2-19.7 15.1-49.6 11.4-64 .1-5.3-4.1-8.6-9.2-10.7-15.6-7.1-21.5-7.3-43.8-8.5-66-1-17.5-1.5-35.1-5.6-52.3-1.7-7.1-4.9-12.3-11.7-16.1-16-9-32.5-16.8-49.3-24.2-4.9-2.2-6.8-1.3-7.8 4.3-4.7 25.5-9.1 51.2-17.6 75.9-3.6 10.5-7 21.1-11.6 31.3-1.7 3.8-3.1 4.8-5.9.8-2.7-3.9-6.3-7-10.7-8.9-14.1-6.2-19-17.9-19.2-32.3v-22.3c.4-12.6 6.8-20.2 19.3-22.8 9.3-1.9 18.1-4.9 25.2-11.6 7.8-7.3 7.7-13-.6-19.5-6.3-4.9-13.7-8-20.9-11.2-7.6-3.4-11.6-8.4-11.3-17.2.3-9.2 2.1-18.2 3.6-27.2 1-6.4 4.7-10 10.5-12.2 6.2-2.3 12.6-2.4 19-1.4 5 .7 7.6 3.7 8.6 8.8l10.4 50.9c1.1 5.9 3.7 8.5 9.9 8.2 10.6-.4 21.3-.7 31.9-.1 9.4.6 14.6-3.9 18.9-11.4 14.9-26.3 30.4-52.2 48.1-76.7C699.8 151 711 136 729 128.5c43.3-18 86.1-4.1 103.9 41.9 2.2 5.8 4.4 11.6 5.6 17.7 2 11.1 1.8 22.2 1.7 36.7zm-128.1 99c.1 12.6-.5 25.3 2.9 37.7 1.9 7.1 5.6 7.9 11.1 3 7.5-6.6 11.1-15.8 15.7-24.2 15.4-28 27.3-57.6 40.8-86.6 9.3-20 17.3-40.3 19.6-62.6 1.8-18-1.4-32.7-23.2-39.5-20.3-6.2-34.5-1-43.2 18.4-8.5 19.1-13.6 39.3-17.5 59.7-5.9 31.2-4.3 62.8-6.2 94.1zm19.5 80.2c-.1-11.2-8.8-19-21.1-18.9-11.8.1-23 12.6-22.9 25.5.1 8.5 13.6 19.9 23.7 20 9.3.2 20.4-14.3 20.3-26.6zM80.7 197.8c-.1-10.7 5.2-19.5 12.7-21.4 8.8-2.2 19.4 3.8 24 13.5 9.1 19.3 4.7 31.9-13.4 39.1-6.3 2.5-10.9 1.2-14.5-4.7-5.1-8.4-8.7-19-8.8-26.5zm78.6 123.8c.9-16.7.7-33.7 9.3-48.9 3.4-5.9 7.4-10.9 15.1-9.5 7.1 1.3 10.7 6.6 12.7 13 7 22.2 8.6 44.9 6.6 68-1.1 12.6-1.5 25.1-4.5 37.5-1.2 5.1-2.8 10-5.2 14.7-5 9.6-14 10.1-19.6 1-6.6-10.7-9.2-22.9-10.8-35.1-1.7-13.6-4.4-27-3.6-40.7z"/></svg>